<?xml version="1.0" encoding="utf-8"?>
<!-- Generator: Adobe Illustrator 21.0.2, SVG Export Plug-In . SVG Version: 6.00 Build 0)  -->
<svg version="1.1" id="Layer_1" xmlns="http://www.w3.org/2000/svg" xmlns:xlink="http://www.w3.org/1999/xlink" x="0px" y="0px"
	 viewBox="0 0 360 276.3" style="enable-background:new 0 0 360 276.3;" xml:space="preserve">
<style type="text/css">
	.st0{fill:#FFFFFF;}
	.st1{fill:#006EB9;}
	.st2{fill:#005EA0;}
	.st3{fill:#939598;}
	.st4{fill:#C7D5ED;}
	.st5{fill:#58595B;}
	.st6{fill:#414042;}
</style>
<g>
	<path class="st0" d="M135.1,193.3h-16.3c-2,0-3.8,0.4-5.3,1.1v-1.1H79.6v-23.6l-5.8-1.1c10.8-7.9,11.2-8.9,11.8-10.8l0-0.1
		c2.8,0,5.6,0.1,8.4,0.3c6.1,0.5,15.2,1.2,24.7,2.3c16,1.9,27.4,4.3,33.9,7.1c7.3,3.1,12.7,6.8,17.4,10c4.5,3,8.7,5.9,13.6,7.8
		c2.1,0.8,4.3,1.4,6.6,1.6l0,0c9.3,1.1,18.1-2.4,22.5-4.6c5.2-2.6,26.9-16.6,31.3-19.6c4-2.7,8.8-6.7,11.3-8.9
		c3.1,0.1,9.8,0.5,15.3,0.8c10.1,0.6,21.5,1.3,27.4,1.2c15.5-0.3,19.7-6.1,20.8-9.6c1-3.1,2.8-22.5-0.5-36.5
		C312.6,85,300,63.6,290.1,51.8c-2.4-2.8-6.1-7.1-11.1-11.3c-8.3-6.9-18.2-12.1-30.1-15.7c-0.3-0.6-0.6-1.1-1-1.6
		c-2.5-3.4-6.8-5.3-13.5-6.1c-6-0.7-9.8,0.6-12.1,2.4c-31.3-3.5-59.7,3.1-84.3,19.7l-0.9,0.6c-9.9,6.6-15.7,17.3-20.8,27.7
		c-6.4,12.9-13.5,38.1-14.7,43.4c-0.7,2.9-0.6,5.6,0.2,7.8c-6.1,1-11,2.1-14.2,3.4c-11.6,4.5-28.8,13.1-41.4,22.2
		c-20.8,15-21.1,17.9-21.4,20.1c-0.3,2.6,0.6,4.5,2.5,6.1h-2.9v76.5h25.2c3.4,0,6.4-0.9,8.8-2.6v2.6h21.2v-0.9
		c1.5,0.7,3.3,1.1,5.3,1.1c2,0,4.3-0.2,7.2-0.6v0.4h21.4v-1.1c1.5,0.7,3.3,1.1,5.3,1.1h16.3c6.9,0,11.3-4.4,11.3-11.1v-31.3
		C146.4,197.7,142,193.3,135.1,193.3z M53,193.2c-1.9,0-4.2,0.2-7.2,0.7v-15c2.1,0.7,4.2,1.2,6,1.4c2.6,0.3,4.8,0,6.5-1v15.1
		C56.9,193.5,55.1,193.2,53,193.2z"/>
	<path class="st0" d="M246.2,193.2c-1.9,0-4.2,0.2-7.2,0.7v-0.5h-21.4v1c-1.5-0.7-3.2-1-5.2-1h-16c-3.6,0-6.5,1.2-8.4,3.2
		c-2-2.1-4.8-3.2-8.4-3.2h-16.4c-6.9,0-11.3,4.4-11.3,11.1v31.3c0,6.8,4.4,11.1,11.3,11.1h16.4c3.3,0,6.1-1,8-2.9
		c1.9,1.9,4.7,3,8.1,3c1.7,0,3.9-0.2,6.8-0.6v0.5h15v15.2H239v-15.1c0.3,0,0.5,0,0.7,0c4.6,0,8.2-0.7,10.9-2.2
		c4.3-2.4,6.7-6.8,6.7-12.3v-28.4C257.3,197.5,253,193.2,246.2,193.2z"/>
	<polygon class="st0" points="268.4,170.4 268.4,246.9 290,246.9 290,190.9 300.1,190.9 300.1,246.9 321.7,246.9 321.7,190.9 
		332.3,190.9 332.3,170.4 	"/>
</g>
<path class="st0" d="M312.1,111.2c-5.5-23.3-17.3-43.6-27-55.2c-2.8-3.4-6.1-7-10.3-10.4c-7.1-6-16.9-11.6-31.5-15.6
	c0.5-2.4-0.9-5.4-9.6-6.4c-6.2-0.7-8.1,1.2-8.7,2.8c-0.8-0.1-1.5-0.2-2.3-0.3c-47.5-5.7-75.1,14.6-81.9,19.1
	c-8.4,5.6-13.6,15-18.6,25.1c-5.9,12-12.9,36.3-14.2,42c-0.7,2.8-0.3,6,2.6,6.2c4.3,0.3,34.4-2,55.2-1.4c20.8,0.6,73,12.3,79,19.4
	c0,0-47.3-14.7-79.5-15.1c-32.1-0.4-65,2.8-75.3,6.8c-10.3,4-27.5,12.4-39.9,21.4c-12.4,9-18.6,14.7-18.7,15.6
	c-0.1,0.9,20.2,10.3,23.9,8.3c3.6-2,23.7-16.2,24.1-17.7c0.5-1.5-16.5-0.1-21.4,2.1S45,163.4,45,163.4s5.5-5.5,11.7-8.1
	c6.1-2.7,22.7-5,37.8-3.8c15.2,1.2,46.2,3.6,60.8,9.9c14.6,6.3,21.6,14.2,30.7,17.7c9.1,3.5,19.4-0.5,23.9-2.7
	c4.6-2.2,25.4-15.7,30.4-19.1c5-3.4,11.5-9.1,12.5-9.9s34.1,2.2,45.1,1.9c11.1-0.2,14.2-3.5,14.7-5
	C313.2,142.7,315.2,124.6,312.1,111.2z"/>
<g>
	<g>
		<path class="st1" d="M107.2,145.5c58.1,4.1,74.7,26.6,86.7,26.4c12-0.1,51.3-33.2,61.4-35.1c10.1-1.9,35.7,4.8,44.6-8.5
			c8.9-13.4-15-71.1-25.1-82.7c-7.1-6-16.9-11.6-31.5-15.6c0.5-2.4-0.9-5.4-9.6-6.4c-6.2-0.7-8.1,1.2-8.7,2.8
			c-0.8-0.1-1.5-0.2-2.3-0.3c-47.5-5.7-75.1,14.6-81.9,19.1c-8.4,5.6-13.6,15-18.6,25.1c-5.9,12-12.9,36.3-14.2,42
			c-0.7,2.8-0.3,6,2.6,6.2c4.3,0.3,34.4-2,55.2-1.4c20.8,0.6,73,12.3,79,19.4c0,0-47.3-14.7-79.5-15.1c-32.1-0.4-65,2.8-75.3,6.8
			c-10.3,4-27.5,12.4-39.9,21.4c-12.4,9-18.6,14.7-18.7,15.6C31.3,165.1,49.1,141.5,107.2,145.5z"/>
		<path class="st2" d="M55.2,173.5c3.6-2,23.7-16.2,24.1-17.7c0.5-1.5-16.5-0.1-21.4,2.1S45,163.4,45,163.4s5.5-5.5,11.7-8.1
			c6.1-2.7,22.7-5,37.8-3.8c15.2,1.2,46.2,3.6,60.8,9.9c14.6,6.3,21.6,14.2,30.7,17.7c9.1,3.5,19.4-0.5,23.9-2.7
			c4.6-2.2,25.4-15.7,30.4-19.1c5-3.4,11.5-9.1,12.5-9.9s34.1,2.2,45.1,1.9c11.1-0.2,14.2-3.5,14.7-5c0.5-1.5,2.5-19.6-0.7-33
			c-5.5-23.3-17.3-43.6-27-55.2c-2.8-3.4-6.1-7-10.3-10.4c10.1,11.6,34,69.3,25.1,82.7c-8.9,13.4-34.5,6.7-44.6,8.5
			c-10.1,1.9-49.4,35-61.4,35.1c-12,0.1-28.6-22.4-86.7-26.4c-58.1-4.1-75.9,19.6-75.9,19.6C31.2,166,51.6,175.5,55.2,173.5z"/>
		<path class="st0" d="M263.9,124.1c2.2-0.7,5.4-13.2,6.8-25.3c1.4-12.1,1-19-2.2-33.4c-2.8-12.5-12.8-25.8-12.8-25.1
			c-0.1,1.2,10,18,11.4,42.7C268.6,110.2,262.8,124.4,263.9,124.1z"/>
	</g>
	<g>
		<g>
			<path class="st0" d="M187.7,116.3c-7.7-1.1-12.8-1.9-21.2-2.8c-6.1-0.7-9.4-4.4-9-10c0.2-2.3,1.7-8,3.3-13.1
				c0.2-0.7,0.4-1.2,0.5-1.5c-2.3-0.1-3.4-0.2-5.9-0.2c-0.2,0-0.3,0-0.4,0c-2.9-0.1-6.1-0.2-9.6-0.6c-1.6-0.2-3.8-0.5-6-1
				c-2.6-0.7-4.7-1.7-6.2-3c-1-0.9-1.8-1.9-2.3-3c-0.6-1.2-0.9-2.5-1.1-3.8c-0.2-2.2-0.1-4.5,0.3-6.9c0-0.1,0-0.1,0-0.2
				c0.2-0.9,0.4-1.9,0.8-2.9c0.1-0.3,0.2-0.5,0.3-0.8c0.3-0.7,0.7-1.7,1.4-2.8c0.7-1.2,1.6-2.3,2.4-3.1c0.2-0.2,0.3-0.3,0.5-0.5
				c0.5-0.4,1-0.8,1.4-1.2c0.6-0.5,1.2-0.9,1.6-1.1c0.2-0.1,0.3-0.2,0.4-0.3c1.8-1.1,3.8-1.9,6-2.3c0.1-0.4,0.3-0.8,0.5-1.2
				c0.8-1.8,2.2-3.7,3.9-5.4c0.8-0.8,1.7-1.4,2.5-2c0.7-0.5,1.4-0.8,1.9-1.1c0.2-0.1,0.3-0.2,0.6-0.3c3.8-2,8.3-2.8,12.2-2.2
				c0,0,0.1,0,0.1,0c0.2-0.2,0.4-0.5,0.6-0.7c1.3-1.4,2.6-2.6,3.9-3.7c1.7-1.4,3.1-2.3,4.4-3c2.5-1.4,5.3-2.6,8.4-3.3
				c2.7-0.6,5.6-0.9,8.6-0.6c6.2,0.7,12.3,4.3,16.1,8.9c2.1,2.5,3.9,5.3,5.2,8.1c0.7,1.4,1.2,2.8,1.5,4.1c2,0.6,3.9,1.3,5.8,2.2
				c2.3,1.1,4.5,2.5,6.5,4.1c2.2,1.8,4.1,4,5.4,6.3c1.2,2.1,1.8,4.3,2,6.6c0,0,0,0,0,0c0,0.8,0.1,1.9-0.1,3c0,0,0,0,0,0.1
				c-0.1,0.8-0.3,1.8-0.6,2.8c-1.3,3.9-4.3,8.5-8.6,11.1c-0.6,0.3-0.8,0.5-1.4,0.8c-0.4,0.2-0.8,0.4-1.2,0.5
				c-0.2,0.1-0.2,0.1-0.4,0.2c-0.9,0.4-1.8,0.7-2.5,0.9c-0.2,0.1-0.4,0.1-0.7,0.2c-0.2,0-0.3,0.1-0.5,0.1c-2.5,0.6-4.7,0.8-6.7,0.9
				c-2.3,0.1-4.5,0-6.5-0.2c-1.4-0.1-2.6-0.3-3.7-0.4c-0.6-0.1-1.1-0.1-1.6-0.2c-0.7-0.1-1-0.1-1.7-0.2c0,0,0,0,0,0.1
				c0,0.2,0,0.9,0,1.9c0,5.9-0.1,12.5-0.5,14.9C197.3,114.4,193.4,117.1,187.7,116.3z M168.4,91.4c-0.8,2.9-2.8,10.1-2.9,12.1
				c-0.1,1.3,0.2,3,1.7,3.1c8.3,0.9,13.2,1.6,20.9,2.6c1.4,0.2,2-1.4,2.2-2.8c0.4-2.1,0.7-9.9,0.8-13.1
				C182.7,92.6,177.3,92.1,168.4,91.4z M191.2,91C191.2,91,191.2,91,191.2,91C191.2,91,191.2,91,191.2,91z M191.2,91
				C191.2,91,191.2,91,191.2,91C191.2,91,191.2,91,191.2,91z M137.6,70.9c-0.3,1.5-0.3,2.9,0,4.1c0.1,0.6,0.4,1.3,0.8,1.9
				c0.3,0.5,0.8,1.1,1.4,1.5c0.9,0.8,2.2,1.4,3.9,1.9c1.6,0.5,3.3,0.8,4.5,0.9c2.9,0.4,5.9,0.5,8.6,0.7c0.2,0,0.2,0,0.4,0
				c13.8,0.6,21.7,1.1,35.4,1.9l0,0c3.4,0.2,4.8,0.2,8.5,0.4c0.5,0,1,0.1,1.5,0.1c1.1,0.1,2.1,0.1,3.3,0.2c1.5,0.1,3.2,0,5-0.2
				c1.4-0.1,3-0.4,4.9-0.9c0.2-0.1,0.5-0.2,0.8-0.2c0.6-0.2,1.1-0.3,1.5-0.5c0.2-0.1,0.3-0.1,0.5-0.2c0.3-0.1,0.5-0.2,0.7-0.3
				c0.4-0.2,0.7-0.4,1.1-0.6c2.6-1.4,4.6-3.7,5.2-6.2c0-0.1,0-0.1,0.1-0.2c0.2-0.5,0.2-1,0.3-1.7c0-0.1,0-0.1,0-0.2
				c0.1-0.6,0.1-1.3,0-1.9c-0.1-1.4-0.5-2.7-1.2-3.9c-0.7-1.3-1.8-2.5-3-3.5c-1.2-1-2.6-1.8-4.1-2.5c-1.5-0.6-3-1.2-4.5-1.5
				c-0.7-0.2-1.3-0.3-1.9-0.4c-1.2-0.2-1.8-0.3-3-0.5c-0.1-1.2-0.2-1.8-0.3-3c0-0.4-0.1-0.7-0.1-1.1c-0.2-1.1-0.5-2.2-1-3.4
				c-0.8-2-2-4.1-3.5-6c-2.6-3.5-7.3-6-12-6.6c-2.3-0.3-4.6-0.1-6.8,0.4c-2.4,0.5-4.6,1.5-6.5,2.6c-0.9,0.5-2,1.2-3.1,2.3
				c-0.9,0.7-1.8,1.7-2.6,2.7c-0.6,0.7-1.2,1.5-1.7,2.3c-0.7,1.1-1.1,1.7-1.9,2.8c-1-0.4-1.6-0.6-2.7-1.1c-0.5-0.2-1.1-0.4-1.7-0.5
				c-0.2,0-0.5-0.1-0.8-0.1c-1.8-0.1-3.9,0.3-5.5,1.2c-0.2,0.1-0.3,0.2-0.5,0.3c-0.3,0.2-0.7,0.3-1,0.6c-0.4,0.3-0.9,0.6-1.2,1
				c-0.9,0.8-1.5,1.7-1.9,2.5c-0.4,0.8-0.6,1.6-0.7,2.4c-0.2,1.5-0.3,2.2-0.5,3.7c-1.6,0-2.4,0-4,0.1c-0.3,0-0.7,0-1,0.1
				c-1.6,0.1-3.2,0.6-4.5,1.3c-0.1,0.1-0.2,0.1-0.4,0.2c-0.3,0.1-0.5,0.3-0.6,0.3c-0.3,0.3-0.7,0.5-1,0.8c-0.6,0.6-1.1,1.1-1.4,1.6
				c-0.1,0.1-0.1,0.2-0.2,0.3c-0.3,0.4-0.5,0.9-0.7,1.4c-0.1,0.2-0.1,0.3-0.2,0.4C137.9,69.4,137.8,70.1,137.6,70.9z"/>
			<g>
				<path class="st3" d="M170,91c-1.5-0.1-2.5-1.2-2.2-2.4c0.7-3,1-4.5,1.6-7.6c0.2-1.2,1.6-2.2,3-2.1c1.4,0.1,2.4,1.1,2.2,2.4
					c-0.5,3.1-0.8,4.6-1.4,7.7C173,90.3,171.6,91.2,170,91z"/>
				<path class="st4" d="M155.9,85.3c-2.8-0.1-5.9-0.2-9.1-0.6c-1.4-0.2-3.3-0.5-5.2-1c-2.1-0.6-3.8-1.4-5.1-2.5
					c-0.8-0.7-1.4-1.5-1.9-2.3c-0.5-0.9-0.8-1.8-1-2.8c-0.3-1.7-0.3-3.6,0.1-5.5c0.2-0.9,0.4-1.8,0.7-2.7c0,0,0-0.1,0-0.1
					c0.1-0.2,0.1-0.3,0.2-0.5c0.3-0.7,0.6-1.4,1.1-2.2c0.5-0.9,1.3-1.7,2-2.5c0.1-0.1,0.1-0.1,0.1-0.1c0,0,0,0,0.1-0.1
					c0.4-0.3,0.8-0.7,1.3-1c0.4-0.3,0.8-0.5,1.1-0.7c0.1-0.1,0.3-0.2,0.4-0.2c1.8-1.1,4-1.7,6.3-1.9c0.5,0,0.9-0.1,1.3-0.1
					c0.1-1.2,0.5-2.4,1-3.5c0.6-1.4,1.6-2.7,2.9-3.9c0.6-0.6,1.3-1.1,1.9-1.5c0.5-0.3,1-0.6,1.4-0.8c0.2-0.1,0.3-0.2,0.5-0.3
					c2.4-1.3,5.5-1.9,8.1-1.8c0.4,0,0.8,0.1,1.2,0.1c0.8,0.1,1.6,0.3,2.3,0.6c0.7-1,1.5-1.9,2.2-2.7c1-1.2,2.1-2.3,3.2-3.3
					c1.4-1.2,2.6-2,3.7-2.6c2.3-1.3,4.8-2.4,7.5-3c1.7-0.4,3.4-0.6,5.2-0.6c0.8,0,1.6,0,2.5,0.1c5.5,0.6,10.8,3.7,14,7.8
					c1.8,2.2,3.3,4.7,4.3,7.1c0.6,1.5,1.1,2.9,1.4,4.3c0.1,0.5,0.2,1,0.2,1.4c0.6,0.1,1.3,0.3,2.1,0.5c1.8,0.5,3.6,1.1,5.3,1.9
					c1.9,0.9,3.7,2,5.3,3.3c1.7,1.4,3.2,3.1,4.2,4.8c0.9,1.7,1.5,3.4,1.6,5.3c0,0.7,0.1,1.6-0.1,2.5c0,0,0,0.1,0,0.1
					c-0.1,0.7-0.2,1.5-0.5,2.3c-0.9,3.3-3.5,6.6-7,8.6c-0.5,0.3-0.7,0.4-1.2,0.7c-0.4,0.2-0.7,0.3-1,0.5c-0.2,0.1-0.2,0.1-0.4,0.2
					c-0.7,0.3-1.4,0.5-2,0.7c-0.3,0.1-0.5,0.2-0.8,0.2c0,0-0.1,0-0.1,0c-2.2,0.5-4.1,0.8-5.9,0.9c-2.1,0.1-4,0.1-5.8,0
					c-1.3-0.1-2.5-0.2-3.6-0.3c-0.5,0-1-0.1-1.5-0.1c-7.5-0.6-10.2-0.7-17.7-1.1c-7.5-0.5-11.7-0.8-18.5-1.1
					c-3.4-0.2-4.8-0.2-8.3-0.4C156.1,85.3,156,85.3,155.9,85.3z"/>
				<path class="st0" d="M151.9,63c0,0-1.5-6.2,4.4-9.5c8-4.5,12.1,1.5,12.1,1.5s2.7-7,8.7-11.1c7.2-5,19.8-5.5,26,2.1
					c6.2,7.7,5.3,13.7,5.3,13.7s18,1.7,17.5,13.8c-0.5,11.4-15.5,12.3-21.8,11.8c-15.1-1.1-30.5-2-45.8-2.7
					c-10.5-0.5-22.7-0.6-20.6-11C139.8,61.6,151.9,63,151.9,63z"/>
				<g>
					<path class="st5" d="M186.2,74c-0.2,2.2-2.1,3.7-4.3,3.6c-2.2-0.1-3.8-1.8-3.5-4c0.3-2.2,2.3-3.9,4.4-3.9
						C184.9,69.9,186.4,71.9,186.2,74z"/>
					<path class="st3" d="M191,76.2c-4.3-4.8-11.1-3.6-11.4-3.5c-0.4,0.1-0.7,0.2-1,0.4c0,0.2-0.1,0.3-0.1,0.5c-0.2,1.6,0.6,3,2,3.6
						c0,0,0,0,0,0c0,0,4.2-0.7,6.6,1.9c1.9,2.1,1.3,7.6,0.4,10.5c-0.4,1.2,0.5,2.5,1.9,2.8c0.1,0,0.3,0.1,0.4,0.1
						c1.3,0.1,2.4-0.6,2.7-1.8C192.8,89.8,195,80.8,191,76.2z"/>
					<g>
						<path class="st1" d="M195,91.3c0.1-0.7-0.1-1.2-0.8-1.3c-0.7-0.1-13.7-1.1-13.7-1.1s-13.5-0.9-14.2-1c-0.7,0-1.1,0.4-1.2,1
							c-0.2,0.7-3.5,11.6-3.7,14.5c-0.2,2.9,0.9,6.1,5.5,6.6c4.5,0.5,10.7,1.3,10.7,1.3s6.2,0.8,10.4,1.4c4.2,0.6,5.6-2.4,6.2-5.5
							C194.6,104.2,194.9,92,195,91.3z"/>
						<path class="st6" d="M183.7,97.6c0.3-2-1.5-3.8-3.9-4c-2.5-0.2-4.7,1.2-5.1,3.1c-0.2,1,0.2,1.9,1,2.6c-0.8,2.7-1.2,4-1.9,6.7
							c3.4,0.4,5.1,0.6,8.4,1c-0.1-2.8-0.1-4.2-0.1-7C182.9,99.5,183.5,98.6,183.7,97.6z"/>
					</g>
				</g>
			</g>
		</g>
	</g>
</g>
<path class="st6" d="M326.4,176.4h-30.9v8.5h10.6v56h9.6v-56h10.6V176.4z M284.1,176.4h-9.7v64.5h9.7V176.4z M238.9,233.1H233v-25.8
	l8.9-0.2V230C241.9,232.1,240.9,233.1,238.9,233.1 M251.4,204.2c0-3.4-1.7-5.1-5.2-5.1c-1.6,0-3.8,0.2-6.6,0.7
	c-2.2,0.4-4.4,0.7-6.6,1v-1.5h-9.4v56.9h9.4v-15.2c0.7,0,1.7,0,3.2,0.1c1.5,0.1,2.7,0.1,3.5,0.1c3.6,0,6.2-0.5,8-1.4
	c2.4-1.3,3.6-3.7,3.6-7.1V204.2z M199.7,233.8v-11.5h9v11.2L199.7,233.8z M217.6,204.4c0-3.4-1.7-5.2-5.2-5.2h-16
	c-3.5,0-5.3,1.7-5.3,5.2v7.8h8.5v-5.9h9v9.6H196c-3.5,0-5.3,1.7-5.3,5.2v15c0,3.4,1.7,5.1,5.2,5.1c1.5,0,3.6-0.2,6.4-0.6
	c2.1-0.3,4.3-0.7,6.4-1v1.4h9V204.4z M184.9,225.2h-9.2v8h-8.5v-25.9h8.5v7.2h9.2v-9.9c0-3.4-1.7-5.2-5.2-5.2h-16.4
	c-3.5,0-5.3,1.7-5.3,5.2v31.3c0,3.4,1.8,5.2,5.3,5.2h16.4c3.5,0,5.2-1.7,5.2-5.2V225.2z M122.6,206.2h8.9v10h-8.9V206.2z
	 M140.5,227.1h-9v6.9h-8.9v-11.7h15.3l2.6-2.6v-15.3c0-3.4-1.8-5.2-5.3-5.2h-16.3c-3.5,0-5.3,1.7-5.3,5.2v31.3
	c0,3.4,1.8,5.2,5.3,5.2h16.3c3.5,0,5.3-1.7,5.3-5.2V227.1z M107.5,199.3h-9.4v33.6l-8.9,0.2v-33.8h-9.4V236c0,3.4,1.7,5.2,5.2,5.2
	c1.7,0,3.9-0.2,6.6-0.6c2.2-0.4,4.4-0.7,6.6-1.1v1.4h9.4V199.3z M73.6,174.7l-9.3-1.7v68h9.3V174.7z M45.7,233.1h-5.9v-25.8l8.9-0.2
	V230C48.7,232.1,47.7,233.1,45.7,233.1 M58.2,204.2c0-3.4-1.7-5.1-5.2-5.1c-1.6,0-3.8,0.2-6.6,0.7c-2.2,0.4-4.4,0.7-6.6,1v-24.4
	h-9.4v64.5h19.2c2.6,0,4.7-0.7,6.3-2.2c1.6-1.5,2.4-3.5,2.4-6.1V204.2z"/>
</svg>
