<?xml version="1.0" encoding="utf-8"?>
<!-- Generator: Adobe Illustrator 21.0.2, SVG Export Plug-In . SVG Version: 6.00 Build 0)  -->
<svg version="1.1" id="Layer_1" xmlns="http://www.w3.org/2000/svg" xmlns:xlink="http://www.w3.org/1999/xlink" x="0px" y="0px"
	 viewBox="0 0 754.7 382" style="enable-background:new 0 0 754.7 382;" xml:space="preserve">
<style type="text/css">
	.st0{fill:#FFFFFF;}
	.st1{fill:#414042;}
	.st2{fill:#006EB9;}
	.st3{fill:#005EA0;}
	.st4{fill:#939598;}
	.st5{fill:#C7D5ED;}
	.st6{fill:#58595B;}
</style>
<g>
	<path class="st0" d="M471.6,196.2c4.1,0.1,12.8,0.6,20.1,1.1c13.2,0.8,28.2,1.8,35.9,1.6c20.3-0.4,25.8-8,27.3-12.5
		c1.3-4.1,3.7-29.5-0.7-47.9C546.5,106,530,78,517.1,62.6c-3.1-3.7-8-9.3-14.6-14.8C491.6,38.7,478.7,32,463,27.2
		c-0.4-0.7-0.8-1.4-1.3-2.1c-3.2-4.4-8.9-7-17.7-8c-7.9-0.9-12.8,0.8-15.9,3.1c-41.1-4.7-78.3,4-110.5,25.8l-1.2,0.8
		c-13,8.6-20.6,22.6-27.3,36.3c-8.3,16.9-17.7,50-19.3,56.9c-0.9,3.7-0.8,7.3,0.2,10.3c-8,1.3-14.5,2.8-18.6,4.4
		c-15.2,5.9-37.8,17.2-54.3,29.1c-27.2,19.7-27.7,23.4-28,26.4c-0.1,0.9-0.1,1.8,0,2.6h-31v-56.5L99,149v72.6
		c-3.4-5.9-9.7-9.2-18-9.2c-4.3,0-9.8,0.5-16.9,1.7c-1.8,0.3-3.7,0.6-5.5,0.9v-56.1H19v169.3h53.8c8.4,0,15.4-2.6,20.7-7.6
		c2.3-2.2,4.1-4.7,5.5-7.5v15.1h39.1v-8.7c3.4,5.9,9.7,9.3,18,9.3c4.6,0,10.1-0.5,16.9-1.6c1.8-0.3,3.6-0.6,5.4-0.9v1.9h39.4v-8.7
		c3.5,5.6,9.8,8.7,18,8.7h38.4c13.1,0,21.2-8,21.2-20.8v-29.1h-5.1l5.1-5.1v-39.6c0-12.8-8.1-20.8-21.2-20.8h-36.9
		c10.3-7.7,10.7-9,11.4-11.3l0-0.1c3.7,0,7.4,0.1,11.1,0.4c8,0.6,20,1.5,32.4,3c19.6,2.3,33.9,5.2,42.7,8.6
		c-9.8,2-15.7,9.3-15.7,20.2v73.8c0,12.8,8.1,20.8,21.2,20.8h38.6c9.2,0,15.9-4,19-10.9c3,7.1,9.7,11.3,19,11.3
		c3.9,0,9.2-0.5,16.4-1.6l5.2-0.8v2h35.2V364h39.5v-35.6c3,0.1,5.4,0.2,7.2,0.2c10,0,17.5-1.5,23-4.5c5.9-3.3,13-10.2,13-24.3V233
		c0-12.7-8-20.6-20.8-20.6c-4.3,0-9.8,0.5-16.9,1.7c-1.8,0.3-3.7,0.6-5.5,0.9v-2.2h-39.5v8.4c-3.5-5.4-9.6-8.4-17.6-8.4h-7
		c3.4-2.2,6.1-4,7.4-4.9C462,204.3,468.2,199.1,471.6,196.2z"/>
	<polygon class="st0" points="643.3,158.9 643.3,196.2 668.3,196.2 668.3,328.1 708.3,328.1 708.3,196.2 733.3,196.2 733.3,158.9 	
		"/>
	<rect x="593.7" y="158.9" class="st0" width="40" height="169.3"/>
</g>
<path class="st1" d="M724.7,167.5h-72.7v20.1H677v131.9h22.6V187.6h25.1V167.5z M625.1,167.5h-22.7v152h22.7V167.5z M518.6,301
	h-13.8v-60.7l20.9-0.4v53.7C525.7,298.6,523.3,301,518.6,301 M548,233c0-8-4-11.9-12.1-11.9c-3.8,0-9,0.5-15.5,1.6
	c-5.2,0.8-10.4,1.6-15.5,2.4v-3.6h-22.2v133.9h22.2v-35.8c1.6,0,4.1,0.1,7.6,0.2c3.5,0.1,6.3,0.2,8.2,0.2c8.4,0,14.7-1.1,18.8-3.4
	c5.7-3.2,8.5-8.7,8.5-16.7V233z M426.3,302.6v-27.1h21.3v26.3L426.3,302.6z M468.6,233.5c0-8.1-4.1-12.1-12.3-12.1h-37.6
	c-8.4,0-12.5,4-12.5,12.1v18.4h20.1v-14h21.3v22.5h-30c-8.4,0-12.5,4-12.5,12.1v35.4c0,8,4,11.9,12.1,11.9c3.4,0,8.4-0.5,15.1-1.5
	c5.1-0.8,10.1-1.6,15.2-2.3v3.4h21.3V233.5z M391.5,282.3h-21.7V301h-19.9v-61.1h19.9v16.9h21.7v-23.3c0-8.1-4.1-12.1-12.3-12.1
	h-38.6c-8.4,0-12.5,4-12.5,12.1v73.8c0,8.1,4.2,12.1,12.5,12.1h38.6c8.2,0,12.3-4,12.3-12.1V282.3z M244.7,237.7h20.9v23.5h-20.9
	V237.7z M286.9,286.9h-21.3v16.3h-20.9v-27.5h36l6.1-6.1v-36c0-8.1-4.2-12.1-12.5-12.1H236c-8.4,0-12.5,4-12.5,12.1v73.8
	c0,8.1,4.2,12.1,12.5,12.1h38.4c8.4,0,12.5-4,12.5-12.1V286.9z M209.3,221.4h-22.1v79.2l-21.1,0.5v-79.6h-22v86.5
	c0,8.1,4,12.1,12.1,12.1c4.1,0,9.3-0.5,15.5-1.5c5.2-0.8,10.3-1.7,15.4-2.5v3.4h22.1V221.4z M129.5,163.4l-21.9-4.1v160.1h21.9
	V163.4z M63.7,301H49.9v-60.7l20.9-0.4v53.7C70.8,298.6,68.4,301,63.7,301 M93.1,233c0-8-4-11.9-12.1-11.9c-3.8,0-9,0.5-15.5,1.6
	c-5.2,0.8-10.4,1.6-15.5,2.4v-57.5H27.7v152h45.2c6.1,0,11.1-1.7,14.8-5.2c3.7-3.5,5.5-8.3,5.5-14.5V233z"/>
<path class="st0" d="M545.8,140.4c-7.3-30.6-22.7-57.2-35.4-72.4c-3.7-4.4-8-9.1-13.5-13.7c-9.4-7.8-22.1-15.2-41.3-20.4
	c0.6-3.2-1.2-7-12.6-8.4c-8.2-1-10.7,1.5-11.4,3.7c-1-0.1-2-0.3-3.1-0.4c-62.2-7.5-98.5,19.1-107.5,25
	c-11.1,7.3-17.8,19.7-24.4,32.9c-7.7,15.7-16.9,47.6-18.6,55.1c-0.9,3.7-0.4,7.8,3.4,8.1c5.6,0.4,45.1-2.6,72.4-1.8
	c27.2,0.8,95.8,16.1,103.5,25.4c0,0-62-19.3-104.2-19.9c-42.1-0.5-85.2,3.7-98.7,8.9c-13.5,5.3-36.1,16.3-52.3,28
	c-16.3,11.8-24.4,19.2-24.5,20.4s26.5,13.6,31.3,10.9c4.7-2.7,31-21.3,31.7-23.2c0.6-1.9-21.7-0.1-28.1,2.7
	c-6.4,2.9-16.9,7.3-16.9,7.3s7.3-7.2,15.3-10.7c8-3.5,29.7-6.6,49.6-5c19.9,1.5,60.5,4.7,79.7,13c19.1,8.3,28.4,18.6,40.3,23.2
	c11.9,4.6,25.4-0.6,31.4-3.6c6-2.9,33.4-20.6,39.9-25.1c6.6-4.5,15.1-11.9,16.4-12.9c1.3-1,44.7,2.8,59.2,2.5
	c14.5-0.3,18.6-4.6,19.3-6.6C547.3,181.8,550,158,545.8,140.4z"/>
<g>
	<path class="st2" d="M277.2,185.4c76.2,5.3,98,34.8,113.7,34.7c15.7-0.2,67.2-43.6,80.5-46c13.3-2.5,46.8,6.3,58.5-11.2
		c11.7-17.5-19.7-93.2-32.9-108.4c-9.4-7.8-22.1-15.2-41.3-20.4c0.6-3.2-1.2-7-12.6-8.4c-8.2-1-10.7,1.5-11.4,3.7
		c-1-0.1-2-0.3-3.1-0.4c-62.2-7.5-98.5,19.1-107.5,25c-11.1,7.3-17.8,19.7-24.4,32.9c-7.7,15.7-16.9,47.6-18.6,55.1
		c-0.9,3.7-0.4,7.8,3.4,8.1c5.6,0.4,45.1-2.6,72.4-1.8c27.2,0.8,95.8,16.1,103.5,25.4c0,0-62-19.3-104.2-19.9
		c-42.1-0.5-85.2,3.7-98.7,8.9c-13.5,5.3-36.1,16.3-52.3,28c-16.3,11.8-24.4,19.2-24.5,20.4C177.7,211.1,201,180.1,277.2,185.4z"/>
	<path class="st3" d="M209,222c4.7-2.7,31-21.3,31.7-23.2c0.6-1.9-21.7-0.1-28.1,2.7c-6.4,2.9-16.9,7.3-16.9,7.3s7.3-7.2,15.3-10.7
		c8-3.5,29.7-6.6,49.6-5c19.9,1.5,60.5,4.7,79.7,13c19.1,8.3,28.4,18.6,40.3,23.2c11.9,4.6,25.4-0.6,31.4-3.6
		c6-2.9,33.4-20.6,39.9-25.1c6.6-4.5,15.1-11.9,16.4-12.9c1.3-1,44.7,2.8,59.2,2.5c14.5-0.3,18.6-4.6,19.3-6.6
		c0.6-1.9,3.3-25.7-0.9-43.3c-7.3-30.6-22.7-57.2-35.4-72.4c-3.7-4.4-8-9.1-13.5-13.7c13.3,15.2,44.6,90.9,32.9,108.4
		c-11.7,17.5-45.2,8.7-58.5,11.2c-13.3,2.5-64.8,45.9-80.5,46c-15.7,0.2-37.6-29.3-113.7-34.7c-76.2-5.3-99.5,25.7-99.5,25.7
		C177.6,212.3,204.3,224.7,209,222z"/>
	<path class="st0" d="M482.7,157.3c2.9-0.9,7.1-17.3,8.9-33.1c1.9-15.9,1.3-25-2.9-43.8C485,64,472,46.6,471.9,47.5
		c-0.2,1.6,13.1,23.6,14.9,56C488.8,139.1,481.3,157.7,482.7,157.3z"/>
</g>
<g>
	<path class="st0" d="M382.7,147.1c-10.2-1.5-16.9-2.5-27.8-3.7c-8.1-0.9-12.3-5.8-11.8-13.1c0.2-3,2.2-10.4,4.3-17.1
		c0.3-0.9,0.5-1.6,0.6-2c-3-0.2-4.5-0.2-7.7-0.3c-0.2,0-0.3,0-0.5,0c-3.8-0.1-8-0.2-12.6-0.7c-2.1-0.2-5-0.6-7.8-1.4
		c-3.4-0.9-6.1-2.2-8.2-4c-1.3-1.2-2.4-2.5-3.1-4c-0.8-1.6-1.2-3.3-1.4-5c-0.3-2.9-0.1-5.9,0.4-9c0-0.1,0-0.2,0.1-0.3
		c0.3-1.1,0.6-2.4,1-3.9c0.2-0.4,0.2-0.6,0.4-1c0.4-1,0.9-2.3,1.8-3.7c1-1.6,2.1-3,3.1-4.1c0.3-0.3,0.4-0.4,0.6-0.7
		c0.7-0.6,1.2-1.1,1.9-1.6c0.8-0.7,1.6-1.2,2.2-1.5c0.2-0.1,0.3-0.2,0.6-0.4c2.4-1.4,5-2.4,7.9-3.1c0.2-0.5,0.4-1,0.6-1.5
		c1-2.4,2.9-4.9,5.1-7c1-1,2.2-1.9,3.3-2.6c0.9-0.6,1.8-1.1,2.4-1.5c0.3-0.2,0.4-0.2,0.7-0.4c5-2.7,10.9-3.7,16-2.9
		c0.1,0,0.1,0,0.2,0c0.3-0.3,0.6-0.6,0.8-0.9c1.7-1.8,3.5-3.4,5.1-4.8c2.2-1.8,4.1-3,5.8-4c3.2-1.8,6.9-3.4,11-4.3
		c3.6-0.8,7.4-1.2,11.3-0.7c8.2,0.9,16.1,5.7,21.1,11.7c2.8,3.3,5.1,6.9,6.9,10.6c0.9,1.9,1.5,3.7,2,5.4c2.6,0.7,5.1,1.7,7.6,2.9
		c3,1.5,6,3.3,8.5,5.4c2.9,2.4,5.4,5.3,7.1,8.2c1.6,2.8,2.4,5.6,2.6,8.6c0,0,0,0,0,0.1c0,1.1,0.1,2.4-0.2,3.9c0,0,0,0,0,0.1
		c-0.1,1-0.3,2.3-0.8,3.7c-1.7,5.1-5.7,11.2-11.3,14.5c-0.7,0.4-1.1,0.7-1.9,1.1c-0.6,0.3-1,0.5-1.5,0.7c-0.2,0.1-0.3,0.1-0.5,0.2
		c-1.2,0.6-2.4,0.9-3.3,1.2c-0.3,0.1-0.6,0.2-0.9,0.3c-0.2,0.1-0.4,0.1-0.6,0.2c-3.3,0.7-6.1,1.1-8.8,1.1c-3,0.1-5.8,0-8.5-0.3
		c-1.8-0.2-3.4-0.4-4.9-0.6c-0.8-0.1-1.4-0.2-2-0.2c-0.9-0.1-1.4-0.1-2.3-0.2c0,0,0,0.1,0,0.1c0,0.2,0,1.2,0,2.5
		c0,7.7-0.1,16.4-0.6,19.6C395.4,144.6,390.2,148.2,382.7,147.1z M357.4,114.5c-1.1,3.8-3.7,13.3-3.8,15.9c-0.1,1.8,0.3,3.9,2.2,4.1
		c10.8,1.2,17.3,2,27.5,3.4c1.9,0.3,2.6-1.9,2.9-3.7c0.5-2.7,0.9-13,1-17.2C376.2,116,369.1,115.4,357.4,114.5z M387.4,113.9
		C387.4,113.9,387.4,113.9,387.4,113.9C387.4,113.9,387.4,113.9,387.4,113.9z M387.4,113.9C387.4,113.9,387.4,113.9,387.4,113.9
		C387.4,113.9,387.4,113.9,387.4,113.9z M317,87.5c-0.4,2-0.4,3.8,0,5.4c0.2,0.8,0.5,1.7,1,2.5c0.4,0.7,1.1,1.4,1.8,2
		c1.2,1,2.9,1.9,5.1,2.5c2.1,0.6,4.3,1,5.9,1.2c3.9,0.5,7.7,0.7,11.3,0.9c0.2,0,0.3,0,0.5,0c18.1,0.8,28.5,1.4,46.4,2.5l0,0
		c4.4,0.2,6.3,0.3,11.1,0.6c0.6,0,1.3,0.1,1.9,0.1c1.4,0.1,2.8,0.2,4.4,0.3c2,0.1,4.1,0,6.5-0.2c1.9-0.2,3.9-0.5,6.5-1.1
		c0.3-0.1,0.7-0.2,1-0.3c0.7-0.2,1.4-0.4,1.9-0.7c0.3-0.1,0.4-0.2,0.7-0.3c0.4-0.1,0.6-0.3,1-0.4c0.6-0.3,0.9-0.5,1.5-0.8
		c3.4-1.8,6-4.9,6.9-8.2c0-0.1,0.1-0.2,0.1-0.3c0.2-0.6,0.3-1.4,0.4-2.2c0-0.1,0-0.2,0-0.3c0.1-0.8,0.1-1.7,0.1-2.5
		c-0.1-1.8-0.7-3.6-1.6-5.2c-0.9-1.7-2.3-3.3-3.9-4.5c-1.6-1.3-3.4-2.3-5.4-3.2c-1.9-0.8-3.9-1.5-5.9-2c-0.9-0.2-1.7-0.4-2.4-0.5
		c-1.6-0.3-2.4-0.4-3.9-0.7c-0.1-1.5-0.2-2.3-0.3-3.9c0-0.5-0.1-0.9-0.2-1.4c-0.2-1.4-0.7-2.9-1.3-4.5c-1-2.6-2.6-5.3-4.6-7.9
		c-3.4-4.6-9.6-7.9-15.8-8.6c-3-0.3-6-0.1-8.9,0.5c-3.1,0.7-6,1.9-8.6,3.4c-1.2,0.7-2.6,1.6-4.1,3c-1.1,1-2.3,2.3-3.5,3.6
		c-0.8,0.9-1.5,2-2.3,3.1c-1,1.5-1.5,2.2-2.4,3.6c-1.3-0.5-2.1-0.8-3.5-1.4c-0.7-0.3-1.4-0.5-2.2-0.6c-0.3-0.1-0.7-0.1-1-0.1
		c-2.4-0.2-5.1,0.4-7.2,1.5c-0.2,0.1-0.4,0.2-0.7,0.4c-0.4,0.2-0.9,0.5-1.3,0.8c-0.6,0.4-1.2,0.8-1.6,1.3c-1.1,1.1-2,2.2-2.5,3.3
		c-0.5,1-0.8,2.1-0.9,3.2c-0.3,2-0.4,2.9-0.6,4.9c-2.1,0-3.1,0-5.3,0.1c-0.4,0-0.9,0-1.4,0.1c-2.1,0.2-4.1,0.7-5.9,1.6
		c-0.2,0.1-0.3,0.2-0.5,0.3c-0.3,0.2-0.6,0.3-0.8,0.5c-0.4,0.3-0.9,0.7-1.3,1c-0.8,0.8-1.5,1.5-1.9,2.1c-0.1,0.1-0.1,0.2-0.2,0.4
		c-0.4,0.5-0.7,1.2-1,1.9c-0.1,0.2-0.2,0.3-0.3,0.6C317.5,85.6,317.3,86.6,317,87.5z"/>
	<g>
		<path class="st4" d="M359.6,114c-2-0.1-3.2-1.5-2.9-3.1c0.9-4,1.3-6,2.1-10c0.3-1.6,2-2.8,3.9-2.7c1.9,0.1,3.2,1.5,2.9,3.1
			c-0.7,4.1-1.1,6.1-1.9,10.1C363.5,112.9,361.6,114.1,359.6,114z"/>
		<path class="st5" d="M341,106.5c-3.7-0.2-7.7-0.3-11.9-0.8c-1.9-0.2-4.4-0.6-6.8-1.3c-2.8-0.8-5-1.9-6.7-3.3c-1-0.9-1.9-1.9-2.5-3
			c-0.6-1.1-1-2.4-1.3-3.7c-0.4-2.2-0.4-4.7,0.2-7.2c0.3-1.2,0.6-2.3,1-3.5c0-0.1,0-0.1,0-0.1c0.1-0.2,0.2-0.4,0.3-0.6
			c0.4-0.9,0.8-1.9,1.5-2.9c0.7-1.2,1.7-2.2,2.6-3.2c0.1-0.1,0.1-0.1,0.2-0.2c0,0,0.1,0,0.1-0.1c0.5-0.5,1.1-0.9,1.6-1.3
			c0.5-0.4,1-0.7,1.4-0.9c0.2-0.1,0.3-0.2,0.5-0.3c2.4-1.4,5.3-2.2,8.3-2.5c0.6-0.1,1.2-0.1,1.7-0.1c0.2-1.6,0.6-3.1,1.3-4.6
			c0.8-1.8,2.1-3.6,3.8-5.1c0.8-0.8,1.7-1.5,2.5-2c0.6-0.4,1.3-0.8,1.8-1.1c0.2-0.1,0.5-0.3,0.7-0.4c3.2-1.8,7.2-2.6,10.6-2.3
			c0.5,0,1,0.1,1.5,0.2c1,0.2,2.1,0.5,3.1,0.8c0.9-1.3,1.9-2.5,2.8-3.6c1.3-1.6,2.7-3,4.2-4.3c1.8-1.6,3.4-2.6,4.9-3.5
			c3-1.7,6.3-3.1,9.9-3.9c2.2-0.5,4.5-0.8,6.8-0.8c1.1,0,2.2,0.1,3.2,0.2c7.2,0.8,14.1,4.9,18.3,10.2c2.3,2.9,4.3,6.1,5.7,9.3
			c0.8,2,1.4,3.8,1.8,5.6c0.1,0.7,0.2,1.3,0.3,1.9c0.8,0.2,1.7,0.4,2.8,0.6c2.4,0.6,4.8,1.5,7,2.5c2.5,1.2,4.9,2.6,7,4.3
			c2.3,1.8,4.2,4,5.5,6.4c1.2,2.2,2,4.5,2.1,6.9c0.1,0.9,0.1,2.1-0.1,3.3c0,0.1,0,0.1,0,0.1c-0.1,1-0.2,2-0.6,3
			c-1.2,4.3-4.6,8.7-9.1,11.2c-0.6,0.4-1,0.6-1.6,0.9c-0.5,0.3-0.9,0.4-1.4,0.6c-0.2,0.1-0.3,0.1-0.5,0.2c-0.9,0.4-1.8,0.7-2.7,1
			c-0.3,0.1-0.7,0.2-1,0.3c-0.1,0-0.1,0-0.2,0c-2.9,0.7-5.4,1.1-7.7,1.2c-2.7,0.2-5.2,0.2-7.6,0c-1.8-0.1-3.3-0.3-4.7-0.4
			c-0.7-0.1-1.3-0.1-2-0.2c-9.8-0.8-13.4-0.9-23.3-1.5c-9.9-0.7-15.3-1-24.2-1.5c-4.5-0.2-6.3-0.3-10.8-0.5
			C341.3,106.5,341.2,106.5,341,106.5z"/>
		<path class="st0" d="M335.8,77.3c0,0-1.9-8.1,5.8-12.5c10.5-6,15.9,2,15.9,2s3.5-9.1,11.4-14.5c9.5-6.5,26-7.2,34,2.8
			c8.2,10.1,7,17.9,7,17.9s23.6,2.2,22.9,18.1c-0.6,14.9-20.4,16.1-28.6,15.5c-19.8-1.5-40-2.6-60-3.6c-13.8-0.7-29.8-0.7-27-14.4
			C319.9,75.3,335.8,77.3,335.8,77.3z"/>
		<g>
			<path class="st6" d="M380.8,91.7c-0.3,2.9-2.7,4.9-5.6,4.7c-2.9-0.1-4.9-2.4-4.6-5.2c0.3-2.8,3-5.2,5.7-5.1
				C379.1,86.3,381.1,88.8,380.8,91.7z"/>
			<path class="st4" d="M387.1,94.5c-5.6-6.3-14.5-4.7-14.9-4.6c-0.5,0.1-0.9,0.3-1.3,0.6c-0.1,0.2-0.1,0.4-0.2,0.7
				c-0.3,2.1,0.8,3.9,2.6,4.7c0,0,0,0,0,0c0.1,0,5.5-1,8.6,2.5c2.5,2.7,1.7,9.9,0.6,13.8c-0.5,1.6,0.6,3.3,2.5,3.7
				c0.2,0,0.4,0.1,0.5,0.1c1.6,0.1,3.1-0.8,3.5-2.3C389.4,112.3,392.3,100.5,387.1,94.5z"/>
			<g>
				<path class="st2" d="M392.3,114.3c0.1-0.9-0.2-1.6-1-1.7c-0.9-0.1-18-1.4-18-1.4s-17.7-1.2-18.6-1.3c-0.9-0.1-1.4,0.5-1.6,1.3
					c-0.2,0.9-4.7,15.2-4.9,19c-0.2,3.8,1.2,8,7.2,8.6c5.9,0.6,14.1,1.7,14.1,1.7s8.1,1.1,13.6,1.9c5.5,0.8,7.4-3.2,8.1-7.2
					C391.8,131.2,392.2,115.2,392.3,114.3z"/>
				<path class="st1" d="M377.5,122.6c0.3-2.6-1.9-5-5.2-5.3c-3.2-0.3-6.2,1.5-6.6,4.1c-0.2,1.3,0.3,2.5,1.3,3.5
					c-1,3.5-1.6,5.2-2.5,8.7c4.4,0.5,6.7,0.8,11,1.4c-0.1-3.7-0.2-5.5-0.2-9.2C376.5,125.1,377.3,123.9,377.5,122.6z"/>
			</g>
		</g>
	</g>
</g>
</svg>
